<svg width="1090" height="102" viewBox="0 0 1090 102" fill="none" xmlns="http://www.w3.org/2000/svg">
<path d="M72.52 100L108.08 2H78.68L55.72 71.02H54.74L31.92 2H0.839966L36.4 100H72.52Z" fill="white"/>
<path d="M142.705 100V2H115.405V100H142.705Z" fill="white"/>
<path d="M200.12 101.4C227.98 101.4 243.94 92.16 243.94 69.06V68.08C243.94 49.18 232.88 41.06 208.8 40.22L195.36 39.66C185.14 39.38 182.2 37 182.2 31.12V30.56C182.2 23.98 186.54 21.18 197.04 21.18C206.28 21.18 212.3 23.7 214.26 31.54H243.24C241.42 11.66 224.62 0.600006 198.02 0.600006H196.62C167.92 0.600006 154.34 11.52 154.34 32.66V33.36C154.34 52.26 165.4 60.38 189.48 61.22L202.92 61.64C213.14 62.06 216.22 64.44 216.22 70.04V71.44C216.22 78.02 211.04 80.82 199.84 80.82C191.02 80.82 183.46 79.56 181.5 71.72H152.52C154.62 92.72 171.7 101.4 198.86 101.4H200.12Z" fill="white"/>
<path d="M298.284 101.4C331.744 101.4 342.944 91.74 342.944 59.26V2H315.084V58C315.084 74.66 310.884 78.44 298.564 78.44H296.324C284.004 78.44 279.944 74.8 279.944 58V2H252.084V59.26C252.084 91.74 263.284 101.4 296.604 101.4H298.284Z" fill="white"/>
<path d="M456.557 100L420.997 2H379.837L344.277 100H373.537L380.257 80.26H419.317L426.037 100H456.557ZM399.297 23.56H400.277L412.317 58.98H387.257L399.297 23.56Z" fill="white"/>
<path d="M536.001 100V76.62H491.201V2H463.901V100H536.001Z" fill="white"/>
<path d="M580.815 101.4C604.755 101.4 617.355 93.28 617.355 70.04V68.92C617.355 49.6 608.815 42.32 588.235 41.06L578.435 40.5C569.895 39.94 567.655 37.42 567.655 31.12V29.72C567.655 22.16 570.735 19.92 578.715 19.92C585.715 19.92 589.775 21.88 591.175 31.4H616.795C615.675 9.98001 602.795 0.600006 579.555 0.600006H578.015C553.655 0.600006 542.595 9.84 542.595 31.82V32.66C542.595 51.98 551.275 59.12 571.715 60.52L581.655 61.08C590.055 61.64 592.435 64.16 592.435 70.18V72.28C592.435 79.84 588.795 82.22 580.395 82.22C573.675 82.22 568.495 80.96 567.235 71.86H541.475C542.875 93.28 556.035 101.4 579.555 101.4H580.815Z" fill="white"/>
<path d="M662.573 101.4C686.513 101.4 699.113 93.28 699.113 70.04V68.92C699.113 49.6 690.573 42.32 669.993 41.06L660.193 40.5C651.653 39.94 649.413 37.42 649.413 31.12V29.72C649.413 22.16 652.493 19.92 660.473 19.92C667.473 19.92 671.533 21.88 672.933 31.4H698.553C697.433 9.98001 684.553 0.600006 661.313 0.600006H659.773C635.413 0.600006 624.353 9.84 624.353 31.82V32.66C624.353 51.98 633.033 59.12 653.473 60.52L663.413 61.08C671.813 61.64 674.193 64.16 674.193 70.18V72.28C674.193 79.84 670.553 82.22 662.153 82.22C655.433 82.22 650.253 80.96 648.993 71.86H623.233C624.633 93.28 637.793 101.4 661.313 101.4H662.573Z" fill="white"/>
<path d="M743.071 101.4C764.491 101.4 777.091 93.7 777.091 71.16V69.48C777.091 51.42 769.111 44 750.491 42.46L740.131 41.9C729.771 41.06 727.251 37.98 727.251 30.14V28.88C727.251 19.92 731.171 16.98 740.831 16.98C749.511 16.98 754.411 19.36 755.811 29.72H776.391C775.271 8.86001 762.391 0.600006 741.951 0.600006H740.271C717.871 0.600006 707.231 9.42001 707.231 30.56V31.82C707.231 49.74 715.211 57.3 733.831 58.7L744.191 59.4C754.551 60.1 757.071 63.18 757.071 71.02V72.84C757.071 82.22 752.311 85.02 742.231 85.02C734.531 85.02 728.091 83.48 726.551 73.12H705.971C707.371 94.12 720.811 101.4 741.531 101.4H743.071Z" fill="white"/>
<path d="M812.714 101.4C828.954 101.4 838.194 95.1 838.194 73.68V71.16C838.194 53.66 833.154 46.94 818.734 44.84L811.454 43.86C802.214 42.6 800.254 39.1 800.254 28.74V27.2C800.254 16.28 803.334 12.92 811.314 12.92C819.294 12.92 822.514 15.86 823.214 27.9H837.774C837.214 6.76001 828.254 0.600006 812.294 0.600006H810.754C793.954 0.600006 785.834 7.46001 785.834 28.04V30.14C785.834 47.64 791.014 54.36 805.294 56.46L812.714 57.3C821.814 58.7 823.774 62.2 823.774 72.56V74.66C823.774 85.86 820.134 89.22 812.014 89.22C805.014 89.22 800.674 86.56 799.834 74.66H785.274C785.974 95.24 795.634 101.4 811.314 101.4H812.714Z" fill="white"/>
<path d="M873.827 101.4C890.067 101.4 899.307 95.1 899.307 73.68V71.16C899.307 53.66 894.267 46.94 879.847 44.84L872.567 43.86C863.327 42.6 861.367 39.1 861.367 28.74V27.2C861.367 16.28 864.447 12.92 872.427 12.92C880.407 12.92 883.627 15.86 884.327 27.9H898.887C898.327 6.76001 889.367 0.600006 873.407 0.600006H871.867C855.067 0.600006 846.947 7.46001 846.947 28.04V30.14C846.947 47.64 852.127 54.36 866.407 56.46L873.827 57.3C882.927 58.7 884.887 62.2 884.887 72.56V74.66C884.887 85.86 881.247 89.22 873.127 89.22C866.127 89.22 861.787 86.56 860.947 74.66H846.387C847.087 95.24 856.747 101.4 872.427 101.4H873.827Z" fill="white"/>
<path d="M934.101 101.4C949.361 101.4 958.461 95.38 958.461 74.66V71.86C958.461 55.06 953.841 48.06 940.121 45.96L932.561 44.98C922.481 43.44 920.521 39.52 920.521 27.76V26.36C920.521 14.6 923.881 10.68 932.841 10.68C941.801 10.68 945.301 14.18 946.001 26.64H957.901C957.201 6.20001 948.381 0.600006 933.681 0.600006H932.281C916.741 0.600006 908.621 7.18 908.621 26.92V29.16C908.621 45.96 913.381 52.96 927.101 55.06L934.521 56.04C944.601 57.58 946.701 61.5 946.701 73.26V75.22C946.701 87.4 942.641 91.32 933.401 91.32C925.701 91.32 920.801 88.24 919.961 75.78H908.061C908.901 95.8 918.561 101.4 932.841 101.4H934.101Z" fill="white"/>
<path d="M986.147 101.4C997.487 101.4 1003.65 95.8 1003.65 77.18V73.12C1003.65 56.32 1000.57 49.88 990.487 47.36L985.727 46.24C977.887 44.14 976.767 40.22 976.767 26.64V25.24C976.767 12.64 978.727 8.44001 985.587 8.44001C993.427 8.44001 994.407 12.64 994.407 25.52H1003.65C1003.65 5.78 998.187 0.600006 986.147 0.600006H985.027C973.547 0.600006 967.527 6.20001 967.527 24.96V28.32C967.527 44.98 970.607 51.42 980.687 53.94L985.447 55.2C993.287 57.16 994.407 61.08 994.407 74.66V76.9C994.407 89.36 992.307 93.56 985.587 93.56C978.727 93.56 976.767 89.36 976.767 76.76H967.527C967.527 96.08 973.967 101.4 985.027 101.4H986.147Z" fill="white"/>
<path d="M1030.7 101.4C1041.2 101.4 1047.22 95.94 1047.22 78.02V73.54C1047.22 57.3 1044.28 50.72 1034.9 48.2L1030 46.94C1021.6 44.7 1020.48 40.64 1020.48 25.94V24.68C1020.48 11.66 1022.58 7.04001 1030.14 7.04001C1038.68 7.04001 1039.8 11.66 1039.8 24.68H1047.22C1047.22 5.64001 1041.9 0.600006 1030.7 0.600006H1029.58C1018.94 0.600006 1013.06 6.06001 1013.06 24.12V27.76C1013.06 44 1016 50.58 1025.38 52.96L1030.28 54.36C1038.68 56.6 1039.8 60.66 1039.8 75.36V77.32C1039.8 90.34 1037.56 95.1 1030.14 95.1C1022.72 95.1 1020.48 90.34 1020.48 77.46H1013.06C1013.06 96.36 1019.5 101.4 1029.58 101.4H1030.7Z" fill="white"/>
<path d="M1074.17 101.4C1083.69 101.4 1089.71 95.94 1089.71 78.86V73.96C1089.71 58.28 1086.91 51.42 1078.23 49.04L1073.19 47.64C1064.37 45.26 1063.11 40.92 1063.11 25.1V24.12C1063.11 10.68 1065.49 5.50001 1073.61 5.50001C1082.85 5.50001 1084.11 10.68 1084.11 23.7H1089.71C1089.71 5.50001 1084.53 0.600006 1074.17 0.600006H1073.05C1063.39 0.600006 1057.51 6.06001 1057.51 23.28V27.2C1057.51 42.88 1060.31 49.74 1068.99 52.12L1074.03 53.52C1082.85 55.9 1084.11 60.24 1084.11 76.06V77.88C1084.11 91.32 1081.59 96.5 1073.61 96.5C1065.63 96.5 1063.11 91.32 1063.11 78.3H1057.51C1057.51 96.64 1063.95 101.4 1073.05 101.4H1074.17Z" fill="white"/>
</svg>
